<?xml version="1.0" encoding="UTF-8"?><svg id="Microsoft-Store-English-1" xmlns="http://www.w3.org/2000/svg" width="110.77" height="40" viewBox="0 0 110.77 40">
  <g id="Layer_2">
    <rect id="Rectangle_221000" data-name="Rectangle 221000" width="110.193" height="39.423" transform="translate(0.295 0.295)"/>
    <path id="Path_358434" data-name="Path 358434" d="M.577.577H110.193V39.423H.577ZM0,40H110.77V0H0Z" fill="#d2d2d2"/>
  </g>
  <g id="Layer_1" transform="translate(9.039 8.295)">
    <rect id="Rectangle_221001" data-name="Rectangle 221001" width="10.744" height="10.744" transform="translate(0 0.5)" fill="#f25022"/>
    <rect id="Rectangle_221002" data-name="Rectangle 221002" width="10.744" height="10.744" transform="translate(11.859 0.5)" fill="#7fba00"/>
    <rect id="Rectangle_221003" data-name="Rectangle 221003" width="10.744" height="10.744" transform="translate(0 12.346)" fill="#00a4ef"/>
    <rect id="Rectangle_221004" data-name="Rectangle 221004" width="10.744" height="10.744" transform="translate(11.859 12.346)" fill="#ffb900"/>
    <path id="Path_358435" data-name="Path 358435" d="M408.3,155.415a1.04,1.04,0,0,1,.346-.795,1.209,1.209,0,0,1,1.654.013,1.088,1.088,0,0,1,.333.782,1.013,1.013,0,0,1-.346.782,1.244,1.244,0,0,1-1.667,0,1.106,1.106,0,0,1-.321-.782m2.115,10.487h-1.91v-8.141h1.91Z" transform="translate(-364.992 -142.813)" fill="#fff"/>
    <path id="Path_358436" data-name="Path 358436" d="M439.774,186.736a2.775,2.775,0,0,0,.949-.192,3.814,3.814,0,0,0,.949-.526V187.8a3.72,3.72,0,0,1-1.038.4,5.69,5.69,0,0,1-1.282.141A3.886,3.886,0,0,1,435.3,184.3a4.619,4.619,0,0,1,1.154-3.231,4.165,4.165,0,0,1,3.256-1.269,4.623,4.623,0,0,1,1.09.141,3.7,3.7,0,0,1,.872.321v1.833a3.757,3.757,0,0,0-.91-.5,2.706,2.706,0,0,0-.949-.179,2.433,2.433,0,0,0-1.833.731,2.778,2.778,0,0,0-.692,1.987,2.64,2.64,0,0,0,.667,1.923,2.408,2.408,0,0,0,1.821.679" transform="translate(-388.53 -165.044)" fill="#fff"/>
    <path id="Path_358437" data-name="Path 358437" d="M500.213,180.3a3.694,3.694,0,0,1,.41.026c.115.026.231.051.308.077v1.936a1.54,1.54,0,0,0-.436-.205,2.215,2.215,0,0,0-.705-.1,1.469,1.469,0,0,0-1.192.59,2.875,2.875,0,0,0-.487,1.833v4.115H496.2v-8.141h1.91v1.282h.026a2.181,2.181,0,0,1,.795-1.038,2.222,2.222,0,0,1,1.282-.372" transform="translate(-441.623 -165.479)" fill="#fff"/>
    <path id="Path_358438" data-name="Path 358438" d="M533.9,184.185a4.454,4.454,0,0,1,1.141-3.205,4.217,4.217,0,0,1,3.167-1.179,3.931,3.931,0,0,1,2.987,1.141,4.275,4.275,0,0,1,1.077,3.064,4.348,4.348,0,0,1-1.141,3.154,4.118,4.118,0,0,1-3.1,1.167,3.865,3.865,0,0,1-4.128-4.141m2-.064a2.922,2.922,0,0,0,.577,1.949,2.055,2.055,0,0,0,1.654.667,1.922,1.922,0,0,0,1.59-.667,3.152,3.152,0,0,0,.551-2,3.06,3.06,0,0,0-.564-1.987,1.955,1.955,0,0,0-1.59-.667,2.01,2.01,0,0,0-1.641.705,3.073,3.073,0,0,0-.577,2" transform="translate(-474.489 -165.044)" fill="#fff"/>
    <path id="Path_358439" data-name="Path 358439" d="M608.236,182.046a.84.84,0,0,0,.256.641,4.973,4.973,0,0,0,1.154.59,3.9,3.9,0,0,1,1.615,1.038,2.147,2.147,0,0,1,.462,1.385,2.226,2.226,0,0,1-.885,1.846,3.768,3.768,0,0,1-2.385.692,5.227,5.227,0,0,1-1.115-.128,5.319,5.319,0,0,1-1.038-.308v-1.885a4.464,4.464,0,0,0,1.128.577,3.348,3.348,0,0,0,1.09.218,2.027,2.027,0,0,0,.962-.179.645.645,0,0,0,.308-.615.819.819,0,0,0-.321-.667,4.624,4.624,0,0,0-1.218-.628,3.714,3.714,0,0,1-1.5-1,2.211,2.211,0,0,1-.449-1.41,2.246,2.246,0,0,1,.872-1.808,3.456,3.456,0,0,1,2.269-.705,5.474,5.474,0,0,1,.962.09,3.928,3.928,0,0,1,.885.244v1.821a4.739,4.739,0,0,0-.885-.436,3.111,3.111,0,0,0-1-.179,1.446,1.446,0,0,0-.846.218.67.67,0,0,0-.32.59" transform="translate(-537.607 -164.956)" fill="#fff"/>
    <path id="Path_358440" data-name="Path 358440" d="M655.2,184.185a4.454,4.454,0,0,1,1.141-3.205,4.216,4.216,0,0,1,3.167-1.179,3.931,3.931,0,0,1,2.987,1.141,4.275,4.275,0,0,1,1.077,3.064,4.348,4.348,0,0,1-1.141,3.154,4.118,4.118,0,0,1-3.1,1.167,3.865,3.865,0,0,1-4.128-4.141m1.987-.064a2.922,2.922,0,0,0,.577,1.949,2.055,2.055,0,0,0,1.654.667,1.922,1.922,0,0,0,1.59-.667,3.152,3.152,0,0,0,.551-2,3.06,3.06,0,0,0-.564-1.987,1.955,1.955,0,0,0-1.59-.667,2.01,2.01,0,0,0-1.641.705,3.073,3.073,0,0,0-.577,2" transform="translate(-580.238 -165.044)" fill="#fff"/>
    <path id="Path_358441" data-name="Path 358441" d="M728.041,155.415v4.18a2.792,2.792,0,0,0,.6,1.949,2.353,2.353,0,0,0,1.821.641,3.766,3.766,0,0,0,.833-.09,2.061,2.061,0,0,0,.6-.192v-1.59a1.735,1.735,0,0,1-.41.192,1.336,1.336,0,0,1-.4.077,1.1,1.1,0,0,1-.859-.308,1.634,1.634,0,0,1-.269-1.064V155.4h1.949v-1.564h-1.936v-2.41l-1.923.59v1.833h-2.859v-.987a1.678,1.678,0,0,1,.32-1.115,1.137,1.137,0,0,1,.923-.372,1.848,1.848,0,0,1,.551.077,1.83,1.83,0,0,1,.333.141v-1.654a2.366,2.366,0,0,0-.474-.1,4.389,4.389,0,0,0-.615-.038,2.9,2.9,0,0,0-2.141.821,2.84,2.84,0,0,0-.833,2.1v1.128H721.9v1.564h1.359v6.577h1.936v-6.577h2.846Z" transform="translate(-638.387 -138.89)" fill="#fff"/>
    <path id="Path_358442" data-name="Path 358442" d="M311.895,156.2v11.359h-1.974v-8.9h-.026l-3.526,8.9h-1.308l-3.615-8.9h-.026v8.9H299.6V156.2h2.821l3.269,8.423h.051l3.449-8.423Z" transform="translate(-270.228 -144.469)" fill="#fff"/>
    <path id="Path_358443" data-name="Path 358443" d="M301.728,74.049a4.6,4.6,0,0,1-2.308.577,3.42,3.42,0,0,1-1.744-.436,2.892,2.892,0,0,1-1.167-1.218,4.048,4.048,0,0,1,.038-3.628,3.213,3.213,0,0,1,1.269-1.282,3.737,3.737,0,0,1,1.859-.462,5.7,5.7,0,0,1,1.038.1,3.5,3.5,0,0,1,.846.256v1.026a3.434,3.434,0,0,0-1.962-.513,2.433,2.433,0,0,0-1.282.346,2.336,2.336,0,0,0-.885.949,3.054,3.054,0,0,0-.308,1.385,2.786,2.786,0,0,0,.641,1.923,2.234,2.234,0,0,0,1.756.705,2.632,2.632,0,0,0,1.256-.282V71.741h-1.449v-.846h2.4Z" transform="translate(-267.177 -67.228)" fill="#fff"/>
    <path id="Path_358444" data-name="Path 358444" d="M353.72,85.595h-3.359a1.638,1.638,0,0,0,.423,1.128,1.463,1.463,0,0,0,1.051.4,2.413,2.413,0,0,0,1.513-.5v.821a2.413,2.413,0,0,1-.731.321,3.616,3.616,0,0,1-.91.115A2.2,2.2,0,0,1,350,87.223a2.644,2.644,0,0,1-.6-1.846,2.942,2.942,0,0,1,.295-1.321,2.214,2.214,0,0,1,.821-.923,2.17,2.17,0,0,1,1.167-.333,1.879,1.879,0,0,1,1.487.615,2.5,2.5,0,0,1,.538,1.705v.474Zm-.936-.731a1.414,1.414,0,0,0-.295-.962,1.034,1.034,0,0,0-.82-.333,1.193,1.193,0,0,0-.846.346,1.7,1.7,0,0,0-.462.949Z" transform="translate(-313.643 -80.479)" fill="#fff"/>
    <path id="Path_358445" data-name="Path 358445" d="M391.362,78.644a1.06,1.06,0,0,1-.372.115,2.589,2.589,0,0,1-.423.038c-.9,0-1.346-.5-1.346-1.487V74.618H388.4v-.769h.821V72.695l.936-.295v1.436h1.192v.769h-1.192v2.538a1.128,1.128,0,0,0,.154.679.666.666,0,0,0,.551.192.816.816,0,0,0,.487-.154v.782Z" transform="translate(-347.643 -71.413)" fill="#fff"/>
    <path id="Path_358446" data-name="Path 358446" d="M439.68,66.29a.533.533,0,0,1-.167.4.62.62,0,0,1-.846,0,.523.523,0,0,1-.167-.41.533.533,0,0,1,.179-.41.618.618,0,0,1,.41-.167.561.561,0,0,1,.41.167.554.554,0,0,1,.179.423m-.128,6.564h-.936V68.008h.936Z" transform="translate(-391.32 -65.572)" fill="#fff"/>
    <path id="Path_358447" data-name="Path 358447" d="M458.262,78.644a1.06,1.06,0,0,1-.372.115,2.59,2.59,0,0,1-.423.038c-.9,0-1.346-.5-1.346-1.487V74.618H455.3v-.769h.821V72.695l.936-.295v1.436h1.192v.769h-1.192v2.538a1.128,1.128,0,0,0,.154.679.666.666,0,0,0,.551.192.816.816,0,0,0,.487-.154v.782Z" transform="translate(-405.966 -71.413)" fill="#fff"/>
    <path id="Path_358448" data-name="Path 358448" d="M505.451,65.6a1.125,1.125,0,0,0-.513-.128c-.526,0-.782.321-.782.962v.692h1.1v.769h-1.1v4.077h-.936V67.905h-.82v-.769h.82v-.744a1.7,1.7,0,0,1,.436-1.231,1.878,1.878,0,0,1,1.808-.372V65.6Z" transform="translate(-447.028 -64.7)" fill="#fff"/>
    <path id="Path_358449" data-name="Path 358449" d="M534.967,84.026a1.035,1.035,0,0,0-.282-.115,1.931,1.931,0,0,0-.333-.051.949.949,0,0,0-.808.449,1.98,1.98,0,0,0-.308,1.154v2.474H532.3V83.09h.936v.974h.026a1.669,1.669,0,0,1,.487-.782,1.11,1.11,0,0,1,.756-.282,1.333,1.333,0,0,1,.449.064v.962Z" transform="translate(-473.095 -80.654)" fill="#fff"/>
    <path id="Path_358450" data-name="Path 358450" d="M561.585,85.313a2.581,2.581,0,0,1-.68,1.872,2.4,2.4,0,0,1-1.795.692,2.347,2.347,0,0,1-1.756-.679,2.484,2.484,0,0,1-.654-1.808,2.6,2.6,0,0,1,.68-1.9,2.455,2.455,0,0,1,1.846-.692,2.213,2.213,0,0,1,1.718.667,2.531,2.531,0,0,1,.641,1.846m-.962.026a2.013,2.013,0,0,0-.372-1.308,1.328,1.328,0,0,0-1.064-.449,1.365,1.365,0,0,0-1.1.474,1.959,1.959,0,0,0-.4,1.321,1.873,1.873,0,0,0,.4,1.282,1.378,1.378,0,0,0,1.1.462,1.32,1.32,0,0,0,1.077-.449,2.228,2.228,0,0,0,.359-1.333" transform="translate(-494.366 -80.479)" fill="#fff"/>
    <path id="Path_358451" data-name="Path 358451" d="M612.064,87.674h-.936V84.918a2,2,0,0,0-.231-1.09.882.882,0,0,0-.795-.333.942.942,0,0,0-.782.423A1.62,1.62,0,0,0,609,84.931v2.744h-.936V84.828c0-.885-.346-1.333-1.026-1.333a.968.968,0,0,0-.795.41,1.666,1.666,0,0,0-.308,1.038v2.744H605V82.828h.936v.756h.013a1.653,1.653,0,0,1,1.513-.872,1.527,1.527,0,0,1,.846.256,1.469,1.469,0,0,1,.538.718,2.025,2.025,0,0,1,.679-.744,1.848,1.848,0,0,1,.936-.244c1.064,0,1.59.654,1.59,1.974v3Z" transform="translate(-536.474 -80.392)" fill="#fff"/>
  </g>
</svg>
